<svg width="30" height="30" viewBox="0 0 30 30" fill="none" xmlns="http://www.w3.org/2000/svg">
<g clip-path="url(#clip0)">
<path d="M13.9871 11.7237L13.312 14.5206C14.18 14.7135 16.8322 15.5815 17.218 13.9901C17.6038 12.3506 14.8551 11.9648 13.9871 11.7237Z" fill="#ED6C0C"/>
<path d="M17.218 14.0383C17.652 12.3988 14.8551 11.9648 13.9871 11.7719L13.312 14.5206" fill="#E05A00"/>
<path d="M14.9518 7.91409L14.325 10.4699C15.0483 10.6628 17.2665 11.3861 17.6041 9.93944C17.9417 8.44454 15.6752 8.10698 14.9518 7.91409Z" fill="#ED6C0C"/>
<path d="M17.6041 9.93944C17.9898 8.44454 15.6752 8.10698 14.9518 7.91409L14.325 10.4699" fill="#E05A00"/>
<path d="M17.797 0.34316C11.5763 -1.19996 5.30733 2.60962 3.76421 8.7821C2.22109 15.0028 5.98244 21.2717 12.2031 22.8148C18.4238 24.358 24.6928 20.5966 26.2359 14.3759C27.779 8.20343 24.0177 1.9345 17.797 0.34316ZM20.1116 9.93944C19.967 11.0486 19.3401 11.6272 18.4721 11.8201C19.6294 12.3988 20.2081 13.315 19.6294 14.9064C18.9543 16.8835 17.3147 17.0281 15.1447 16.6424L14.6143 18.7642L13.3605 18.3784L13.8909 16.3048C13.5534 16.2084 13.2158 16.1119 12.8783 16.0637L12.3478 18.1373L11.094 17.7997L11.6245 15.6779C11.3351 15.5815 11.0458 15.5332 10.7082 15.4368L9.06868 15.0028L9.69557 13.5561L10.6118 13.7972C10.9494 13.8937 11.1422 13.6526 11.1905 13.5079L12.0103 10.1806C12.0585 10.1806 12.1067 10.1805 12.1549 10.2288C12.1067 10.2288 12.0585 10.1806 12.0103 10.1806L12.5889 7.81765C12.5889 7.52831 12.4925 7.19075 12.0103 7.09431L11.094 6.8532L11.4316 5.50297L13.1676 5.93697C13.4087 5.98519 13.698 6.08164 13.9874 6.12986L14.5178 4.05629L15.7716 4.39385L15.2412 6.41919C15.5787 6.51564 15.9163 6.56386 16.2538 6.66031L16.7361 4.63496L17.9898 4.97252L17.4594 7.04609C19.1472 7.57653 20.3527 8.39632 20.1116 9.93944Z" fill="#FFB600"/>
<path d="M3.76421 8.78211C2.22109 15.0028 5.98244 21.2717 12.2031 22.8149C18.4238 24.358 24.6928 20.5966 26.2359 14.3759C27.779 8.15522 24.0177 1.88629 17.797 0.34317L3.76421 8.78211ZM20.1116 9.93945C19.967 11.0486 19.3401 11.6272 18.4721 11.8201C19.6294 12.3988 20.2081 13.315 19.6294 14.9064C18.9543 16.8835 17.3147 17.0282 15.1447 16.6424L14.6143 18.7642L13.3605 18.3784L13.8909 16.3048C13.5534 16.2084 13.2158 16.1119 12.8783 16.0637L12.3478 18.1373L11.094 17.7997L11.6245 15.6779C11.3351 15.5815 11.0458 15.5333 10.7082 15.4368L9.06868 15.0028L9.69557 13.5561L10.6118 13.7972C10.9494 13.8937 11.1422 13.6526 11.1905 13.5079L12.0103 10.1806C12.0585 10.1806 12.1067 10.1806 12.1549 10.2288C12.1067 10.2288 12.0585 10.1806 12.0103 10.1806L12.5889 7.81766C12.5889 7.52832 12.4925 7.19077 12.0103 7.09432L11.094 6.85321L11.4316 5.50298L13.1676 5.93698C13.4087 5.9852 13.698 6.08165 13.9874 6.12987L14.5178 4.0563L15.7716 4.39386L15.2412 6.4192C15.5787 6.51565 15.9163 6.56387 16.2538 6.66032L16.7361 4.63497L17.9898 4.97253L17.4594 7.0461C19.1472 7.57655 20.3527 8.39633 20.1116 9.93945Z" fill="#F6921E"/>
<path d="M26.1396 14.8099L19.8706 8.54099C20.1118 8.92677 20.2564 9.40899 20.16 9.98766C20.0153 11.0968 19.3884 11.6754 18.5204 11.8683C19.6777 12.447 20.2564 13.3632 19.6777 14.9546C19.0026 16.9317 17.3631 17.0764 15.1931 16.6906L14.6626 18.8124L13.3606 18.3784L13.891 16.3048C13.5535 16.2084 13.2159 16.1119 12.8784 16.0637L12.3479 18.1373L12.0586 18.0408L16.9773 22.9595C21.2209 22.2362 24.8858 19.1499 26.1396 14.8099Z" fill="#D85107"/>
<path d="M6.27188 25.7564C6.51299 25.7564 6.70588 25.8046 6.89878 25.9011C7.09167 25.9975 7.23633 26.094 7.33278 26.2386C7.42922 26.3833 7.52567 26.5762 7.57389 26.7691C7.62211 26.962 7.67034 27.2031 7.67034 27.396C7.67034 27.7335 7.62211 28.0711 7.47745 28.4086C7.33278 28.7462 7.18811 28.9873 6.947 29.2284C6.70589 29.4695 6.46477 29.6624 6.12721 29.7589C5.83788 29.9035 5.50032 29.9518 5.11454 29.9518C5.06632 29.9518 4.96987 29.9518 4.87343 29.9518C4.77698 29.9518 4.63231 29.9518 4.48765 29.9035C4.34298 29.9035 4.19831 29.8553 4.00542 29.8071C3.86075 29.7589 3.66786 29.7106 3.52319 29.6624L4.8252 24.1168L6.03077 23.924L5.54854 25.9011C5.64499 25.8528 5.74143 25.8046 5.83788 25.8046C6.03077 25.8046 6.17544 25.7564 6.27188 25.7564ZM5.30743 29.0355C5.50032 29.0355 5.64499 28.9873 5.78966 28.8909C5.93432 28.7944 6.07899 28.698 6.17544 28.5533C6.27188 28.4086 6.36833 28.264 6.46477 28.0711C6.51299 27.8782 6.56122 27.6853 6.56122 27.4924C6.56122 27.2513 6.51299 27.0584 6.41655 26.9137C6.3201 26.7691 6.17544 26.7209 5.98255 26.7209C5.93432 26.7209 5.83788 26.7209 5.69321 26.7691C5.59677 26.8173 5.4521 26.8655 5.40388 26.9137L4.92165 28.9873C4.96987 28.9873 4.96987 28.9873 5.01809 28.9873H5.06632C5.11454 28.9873 5.11454 28.9873 5.16276 28.9873C5.16276 29.0355 5.21098 29.0355 5.30743 29.0355Z" fill="white"/>
<path d="M8.92419 29.8554H7.76685L8.7313 25.8529H9.88864L8.92419 29.8554ZM9.50286 25.3707C9.35819 25.3707 9.21352 25.3225 9.06885 25.226C8.92419 25.1296 8.87596 24.9849 8.87596 24.792C8.87596 24.6956 8.87596 24.5991 8.92419 24.5027C8.97241 24.4062 9.02063 24.3098 9.11708 24.2616C9.1653 24.2133 9.26174 24.1169 9.35819 24.1169C9.45463 24.0687 9.55108 24.0687 9.64752 24.0687C9.79219 24.0687 9.93686 24.1169 10.0815 24.2133C10.2262 24.3098 10.2744 24.4544 10.2744 24.6473C10.2744 24.7438 10.2744 24.8402 10.2262 24.9367C10.178 25.0331 10.1297 25.1296 10.0333 25.1778C9.98508 25.226 9.88864 25.3224 9.79219 25.3224C9.69575 25.3224 9.5993 25.3707 9.50286 25.3707Z" fill="white"/>
<path d="M10.9012 24.8402L12.1068 24.6473L11.8174 25.8528H13.0712L12.8301 26.7691H11.5763L11.2388 28.1675C11.1905 28.264 11.1905 28.4086 11.1905 28.5051C11.1905 28.6015 11.1905 28.698 11.2388 28.7462C11.287 28.8426 11.3352 28.8909 11.3834 28.9391C11.4799 28.9873 11.5763 28.9873 11.721 28.9873C11.8657 28.9873 11.9621 28.9873 12.0585 28.9391C12.155 28.9391 12.2997 28.8909 12.3961 28.8426L12.4926 29.7106C12.3479 29.7589 12.155 29.8071 12.0103 29.8553C11.8174 29.9518 11.6245 29.9518 11.3834 29.9518C11.0459 29.9518 10.7565 29.9035 10.5636 29.8071C10.3708 29.7106 10.2261 29.566 10.1296 29.3731C10.0332 29.1802 10.0332 28.9873 10.0332 28.7462C10.0332 28.5051 10.0814 28.264 10.1296 28.0229L10.9012 24.8402Z" fill="white"/>
<path d="M13.0229 28.264C13.0229 27.9265 13.0712 27.5889 13.2158 27.2996C13.3123 27.0102 13.5052 26.7209 13.6981 26.4798C13.891 26.2387 14.1803 26.094 14.4696 25.9493C14.759 25.8047 15.0965 25.7564 15.4823 25.7564C15.7234 25.7564 15.9163 25.7564 16.1092 25.8047C16.3021 25.8529 16.4467 25.9011 16.5914 25.9976L16.2056 26.8656C16.1092 26.8173 16.0127 26.7691 15.8681 26.7691C15.7716 26.7209 15.627 26.7209 15.4823 26.7209C15.0965 26.7209 14.8072 26.8656 14.5661 27.1067C14.325 27.3478 14.2285 27.7336 14.2285 28.1676C14.2285 28.4087 14.2767 28.6498 14.4214 28.7945C14.5178 28.9391 14.759 29.0356 15.0483 29.0356C15.193 29.0356 15.3376 29.0356 15.4823 28.9873C15.627 28.9391 15.7234 28.9391 15.8681 28.8909L15.9645 29.8071C15.8199 29.8554 15.6752 29.9036 15.4823 29.9518C15.2894 30 15.0965 30 14.8554 30C14.5178 30 14.2767 29.9518 14.0356 29.8554C13.7945 29.7589 13.6498 29.6625 13.5052 29.4696C13.3605 29.3249 13.2641 29.132 13.2158 28.9391C13.0229 28.698 13.0229 28.5051 13.0229 28.264Z" fill="white"/>
<path d="M18.0384 30C17.749 30 17.5561 29.9518 17.315 29.8554C17.1221 29.7589 16.9292 29.6625 16.8328 29.5178C16.6881 29.3731 16.5917 29.1802 16.5435 28.9873C16.4952 28.7945 16.447 28.5533 16.447 28.3122C16.447 28.0229 16.4952 27.6853 16.5917 27.396C16.6881 27.1067 16.8328 26.8173 17.0257 26.5762C17.2186 26.3351 17.4597 26.1422 17.749 25.9976C18.0384 25.8529 18.3277 25.7564 18.7135 25.7564C19.0028 25.7564 19.1957 25.8047 19.4368 25.9011C19.6297 25.9976 19.8226 26.094 19.919 26.2387C20.0637 26.3833 20.1602 26.5762 20.2084 26.7691C20.2566 26.962 20.3048 27.2031 20.3048 27.4442C20.3048 27.7336 20.2566 28.0711 20.1602 28.3605C20.0637 28.6498 19.919 28.9391 19.7262 29.1802C19.5333 29.4213 19.2922 29.6142 19.0028 29.7589C18.7135 29.9036 18.4241 30 18.0384 30ZM18.617 26.7209C18.4724 26.7209 18.2795 26.7691 18.183 26.8656C18.0384 26.962 17.9419 27.1067 17.8455 27.2513C17.749 27.396 17.7008 27.5407 17.6526 27.7336C17.6044 27.9265 17.6044 28.0711 17.6044 28.2158C17.6044 28.4569 17.6526 28.6498 17.749 28.7945C17.8455 28.9391 17.9901 28.9873 18.183 28.9873C18.3759 28.9873 18.5206 28.9391 18.617 28.8427C18.7617 28.7462 18.8581 28.6016 18.9546 28.4569C19.051 28.3122 19.0993 28.1676 19.1475 27.9747C19.1957 27.7818 19.1957 27.6371 19.1957 27.4924C19.1957 27.2513 19.1475 27.0584 19.051 26.9138C18.9546 26.7691 18.8099 26.7209 18.617 26.7209Z" fill="white"/>
<path d="M21.5585 29.8554H20.4011L21.3656 25.8529H22.5229L21.5585 29.8554ZM22.0889 25.3707C21.9442 25.3707 21.7996 25.3225 21.6549 25.226C21.5102 25.1296 21.462 24.9849 21.462 24.792C21.462 24.6956 21.462 24.5991 21.5102 24.5027C21.5585 24.4062 21.6067 24.3098 21.7031 24.2616C21.7514 24.2133 21.8478 24.1169 21.9442 24.1169C22.0407 24.0687 22.1371 24.0687 22.2336 24.0687C22.3782 24.0687 22.5229 24.1169 22.6676 24.2133C22.8123 24.3098 22.8605 24.4544 22.8605 24.6473C22.8605 24.7438 22.8605 24.8402 22.8122 24.9367C22.764 25.0331 22.7158 25.1296 22.6194 25.1778C22.5711 25.226 22.4747 25.3224 22.3782 25.3224C22.2818 25.3224 22.1854 25.3707 22.0889 25.3707Z" fill="white"/>
<path d="M23.3425 26.0458C23.4389 25.9976 23.5354 25.9976 23.6318 25.9493C23.7283 25.9011 23.8729 25.9011 23.9694 25.8529C24.1141 25.8047 24.2587 25.8047 24.4034 25.8047C24.5481 25.8047 24.7409 25.7564 24.9338 25.7564C25.5125 25.7564 25.9465 25.9493 26.1876 26.2869C26.4287 26.6244 26.477 27.1067 26.2841 27.7336L25.7536 29.9036H24.6445L25.1267 27.7818C25.1749 27.6371 25.1749 27.5407 25.2232 27.396C25.2232 27.2513 25.2232 27.1549 25.2232 27.0584C25.2232 26.962 25.1749 26.8656 25.0785 26.8173C24.9821 26.7691 24.8856 26.7209 24.7409 26.7209C24.5963 26.7209 24.4516 26.7209 24.3069 26.7691L23.5836 29.9036H22.4263L23.3425 26.0458Z" fill="white"/>
<path d="M9.06885 15.0511L11.2389 17.221L11.6246 15.6779C11.3353 15.5815 11.046 15.5333 10.7084 15.4368L9.06885 15.0511Z" fill="#E26600"/>
<path d="M17.749 6.41922L17.5562 7.04611C18.1348 7.239 18.6653 7.48012 19.0993 7.76945L17.749 6.41922Z" fill="#E26600"/>
<path d="M15.8198 4.39383L15.2893 6.41917C15.6269 6.51562 15.9644 6.56384 16.302 6.66029L16.6395 5.21361L15.8198 4.39383Z" fill="#ED6C0C"/>
<path d="M18.0861 4.92429L17.5557 6.99785L17.6039 7.04608C19.0506 7.5283 20.1597 8.29986 20.1597 9.60187L25.9464 15.3886C26.0428 15.051 26.1393 14.7135 26.2357 14.4241C26.3322 14.0383 26.3804 13.7008 26.4286 13.315L18.0861 4.92429Z" fill="#ED6C0C"/>
<path d="M19.1953 22.3808L14.807 17.9926L14.6141 18.7159L13.3603 18.3783L13.7461 16.8834L12.8781 16.0154L12.3477 18.089L11.0939 17.7515V17.7032L11.0457 17.7515L16.3019 23.0077C17.3146 22.9595 18.279 22.7184 19.1953 22.3808Z" fill="#ED6C0C"/>
<path d="M20.4012 21.8022L15.1932 16.5941C15.1932 16.5941 15.1932 16.5941 15.1449 16.5941L14.6145 18.7159L13.4089 18.4266L17.7972 22.8148C18.7134 22.5737 19.5814 22.2362 20.4012 21.8022Z" fill="#E05A00"/>
</g>
<defs>
<clipPath id="clip0">
<rect width="30" height="30" fill="white"/>
</clipPath>
</defs>
</svg>
