<svg width="30" height="30" viewBox="0 0 30 30" fill="none" xmlns="http://www.w3.org/2000/svg">
<path d="M15.0109 22.8712L6.68506 18.8063L15.0033 30L16.253 28.3182V22.2629L15.0109 22.8712Z" fill="#708299"/>
<path d="M15.0032 0L5.44922 17.143H24.5574L15.0032 0Z" fill="#708299"/>
<path d="M24.5574 17.1684L15.0032 0V17.1684H24.5574Z" fill="#68788E"/>
<path d="M15.0033 12.4876L14.9657 12.4697L5.4502 17.1572H5.45866L14.9742 21.8447L15.0117 21.8269L16.253 21.2194V13.0996L15.0033 12.4876Z" fill="#3C3C47"/>
<path d="M15.0107 22.8713L15.0032 30L23.3274 18.7988L15.0107 22.8713Z" fill="#68788E"/>
<path d="M24.5395 17.1572L15.0031 12.4876L14.9656 12.4697L14.974 21.8447L15.0116 21.8269L24.5479 17.1572H24.5395Z" fill="#31313B"/>
</svg>
