<svg width="30" height="30" viewBox="0 0 30 30" fill="none" xmlns="http://www.w3.org/2000/svg">
<g clip-path="url(#clip0)">
<path d="M30 15C30 22.3451 24.7206 28.4572 17.749 29.7483C16.8582 29.9137 15.9392 30 15 30C13.9678 30 12.96 29.8959 11.9865 29.697C5.14652 28.3022 0 22.252 0 15C0 11.0014 1.56492 7.36717 4.11609 4.67877C4.26363 4.52268 4.41486 4.37021 4.56914 4.2208C7.26855 1.60775 10.9463 0 15 0C19.0537 0 22.7314 1.60775 25.4308 4.2208C25.4945 4.28203 25.5575 4.34449 25.62 4.40689C28.3267 7.11978 30 10.8649 30 15Z" fill="#1BA27A"/>
<path d="M17.7489 12.7635V9.42064H25.6199V4.22079H4.116V9.42058H11.9864V12.7763C5.62889 13.1014 0.866211 14.4336 0.866211 16.028C0.866211 17.6222 5.62889 18.9545 11.9864 19.2796V29.6969C12.9599 29.8959 13.9677 30 14.9999 30C15.9391 30 16.8581 29.9137 17.7489 29.7484V19.2925C24.2387 18.9912 29.1336 17.6443 29.1336 16.028C29.1336 14.4117 24.2387 13.0647 17.7489 12.7635ZM14.9999 18.0827C7.90824 18.0827 2.15932 17.0143 2.15932 15.6961C2.15932 14.5709 6.34889 13.6274 11.9865 13.3757V17.198C12.9422 17.3357 13.9053 17.4049 14.8677 17.4049C15.8308 17.4049 16.7938 17.3357 17.7489 17.198V13.3641C23.5194 13.5985 27.84 14.553 27.84 15.6961C27.8399 17.0143 22.0909 18.0827 14.9999 18.0827Z" fill="#F0EFEB"/>
</g>
<defs>
<clipPath id="clip0">
<rect width="30" height="30" fill="white"/>
</clipPath>
</defs>
</svg>
