<svg width="45" height="45" viewBox="0 0 45 45" fill="none" xmlns="http://www.w3.org/2000/svg">
<path d="M10.5908 26.4771H13.2275V39.7046H10.5908V26.4771Z" fill="white"/>
<path d="M15.8862 26.4771H18.5229V39.7046H15.8862V26.4771Z" fill="white"/>
<path d="M21.1816 26.4771H23.8184V39.7046H21.1816V26.4771Z" fill="white"/>
<path d="M26.4771 26.4771H29.1138V39.7046H26.4771V26.4771Z" fill="white"/>
<path d="M31.7725 26.4771H34.4092V39.7046H31.7725V26.4771Z" fill="white"/>
<path d="M45 19.8523C45 17.6654 43.2208 15.8862 41.0339 15.8862H39.467L37.4571 5.83594C37.0876 3.98856 35.452 2.64771 33.568 2.64771H29.1138V0H15.8862V2.64771H11.432C9.548 2.64771 7.91244 3.98856 7.54295 5.83594L5.53289 15.8862H3.96606C1.77917 15.8862 0 17.6654 0 19.8523V23.8184H2.80222L5.44983 45H39.55L42.1976 23.8184H45V19.8523ZM18.5229 2.63672H26.4771V5.29541H18.5229V2.63672ZM10.1285 6.35309C10.2524 5.7339 10.8006 5.28442 11.432 5.28442H15.8862V7.93213H29.1138V5.28442H33.568C34.1995 5.28442 34.7476 5.73381 34.8715 6.35309L36.7781 15.8862H8.2219L10.1285 6.35309ZM37.2224 42.3633H7.77762L5.4595 23.8184H39.5406L37.2224 42.3633ZM42.3633 21.1816H2.63672V19.8523C2.63672 19.1193 3.23306 18.5229 3.96606 18.5229H41.0339C41.7669 18.5229 42.3633 19.1193 42.3633 19.8523V21.1816Z" fill="white"/>
</svg>
