<svg width="50" height="50" viewBox="0 0 50 50" fill="none" xmlns="http://www.w3.org/2000/svg">
<g clip-path="url(#clip0)">
<path d="M32.3039 32.3529H30.8823V30.5018C33.1662 28.9058 34.775 26.4082 35.1886 23.5294H36.7647C39.1974 23.5294 41.1765 21.5503 41.1765 19.1176V16.1763C41.1764 7.25667 33.9196 0 25 0C16.0803 0 8.82352 7.25676 8.82352 16.1765V19.1176C8.82352 21.5503 10.8026 23.5294 13.2353 23.5294H14.8114C15.225 26.4081 16.8338 28.9057 19.1176 30.5017V32.3529H17.6961C9.56018 32.3529 2.94116 38.972 2.94116 47.1078V48.5294C2.94116 49.3416 3.59959 50 4.41175 50H45.5882C46.4004 50 47.0588 49.3416 47.0588 48.5294V47.1078C47.0588 38.972 40.4398 32.3529 32.3039 32.3529ZM36.7647 20.5882H35.2941V17.6471H36.7647C37.5757 17.6471 38.2353 18.3068 38.2353 19.1176C38.2353 19.9285 37.5757 20.5882 36.7647 20.5882ZM25 2.94118C31.8806 2.94118 37.5509 8.21922 38.177 14.939C37.7332 14.7887 37.2586 14.7059 36.7647 14.7059H35.1886C34.4728 9.72392 30.177 5.88235 25 5.88235C19.823 5.88235 15.5271 9.72392 14.8114 14.7059H13.2353C12.7414 14.7059 12.2668 14.7887 11.823 14.939C12.449 8.21922 18.1193 2.94118 25 2.94118ZM11.7647 19.1176C11.7647 18.3068 12.4244 17.6471 13.2353 17.6471H14.7059V20.5882H13.2353C12.4244 20.5882 11.7647 19.9285 11.7647 19.1176ZM17.647 22.0588V16.1765C17.647 12.1221 20.9456 8.82353 25 8.82353C29.0544 8.82353 32.3529 12.1221 32.3529 16.1765V20.5882H25C24.1878 20.5882 23.5294 21.2467 23.5294 22.0588C23.5294 22.871 24.1878 23.5294 25 23.5294H32.2049C31.5218 26.8816 28.5509 29.4118 25 29.4118C20.9456 29.4118 17.647 26.1132 17.647 22.0588ZM25 32.3529C26.0218 32.3529 27.0088 32.2025 27.9412 31.9241V33.8235C27.9412 35.4453 26.6218 36.7647 25 36.7647C23.3782 36.7647 22.0588 35.4453 22.0588 33.8235V31.9241C22.9912 32.2025 23.9783 32.3529 25 32.3529ZM38.2353 47.0588V42.6471C38.2353 41.8349 37.5769 41.1765 36.7647 41.1765C35.9525 41.1765 35.2941 41.8349 35.2941 42.6471V47.0588H14.7059V42.6471C14.7059 41.8349 14.0474 41.1765 13.2353 41.1765C12.4231 41.1765 11.7647 41.8349 11.7647 42.6471V47.0588H5.88244C5.90891 40.5672 11.1982 35.2941 17.6961 35.2941H19.3037C19.8369 37.3581 21.4653 38.9866 23.5294 39.5197V42.6471C23.5294 43.4592 24.1878 44.1176 25 44.1176C25.8121 44.1176 26.4706 43.4592 26.4706 42.6471V39.5197C28.5346 38.9865 30.163 37.3581 30.6963 35.2941H32.3039C38.8017 35.2941 44.0911 40.5672 44.1175 47.0588H38.2353Z" fill="white"/>
</g>
<defs>
<clipPath id="clip0">
<rect width="50" height="50" fill="white"/>
</clipPath>
</defs>
</svg>
