<svg width="50" height="50" viewBox="0 0 50 50" fill="none" xmlns="http://www.w3.org/2000/svg">
<g clip-path="url(#clip0)">
<path d="M34.7528 23.5352C34.4663 23.5352 34.1821 23.5454 33.9 23.5634L33.1903 11.7676H27.2648V8.75605C27.2648 3.92793 23.3369 0 18.5087 0C13.6807 0 9.75278 3.92793 9.75278 8.75605V11.7676H3.82144L2.01489 44.1162H23.754C26.1304 47.6614 30.1735 50 34.7528 50C42.0492 50 47.9852 44.064 47.9852 36.7676C47.9852 29.4712 42.0492 23.5352 34.7528 23.5352ZM12.6825 8.75605C12.6825 5.54346 15.2961 2.92969 18.5087 2.92969C21.7213 2.92969 24.3351 5.54336 24.3351 8.75605V11.7676H12.6825V8.75605ZM17.1014 20.8745L18.5785 21.8552V26.4771H15.6244V21.8552L17.1014 20.8745ZM5.11274 41.1865L6.59204 14.6973H9.75278V19.1162H12.6825V14.6973H15.6366V18.3305L12.6947 20.2836V29.4067H21.5082V20.2836L18.5663 18.3305V14.6973H24.3351V19.1162H27.2648V14.6973H30.4315L30.9959 24.0793C25.5238 25.7023 21.5204 30.7759 21.5204 36.7676C21.5204 38.3166 21.7888 39.8039 22.2801 41.1865H5.11274ZM34.7528 47.0703C29.0718 47.0703 24.45 42.4485 24.45 36.7676C24.45 31.0866 29.0718 26.4648 34.7528 26.4648C40.4337 26.4648 45.0555 31.0866 45.0555 36.7676C45.0555 42.4485 40.4337 47.0703 34.7528 47.0703Z" fill="white"/>
<path d="M33.6207 37.3224L30.4605 34.1621L28.3889 36.2337L33.6207 41.4655L41.1166 33.9695L39.0451 31.8979L33.6207 37.3224Z" fill="white"/>
</g>
<defs>
<clipPath id="clip0">
<rect width="50" height="50" fill="white"/>
</clipPath>
</defs>
</svg>
