<svg width="50" height="50" viewBox="0 0 50 50" fill="none" xmlns="http://www.w3.org/2000/svg">
<path d="M27.9297 14.7461C28.7387 14.7461 29.3945 14.0903 29.3945 13.2812C29.3945 12.4722 28.7387 11.8164 27.9297 11.8164C27.1207 11.8164 26.4648 12.4722 26.4648 13.2812C26.4648 14.0903 27.1207 14.7461 27.9297 14.7461Z" fill="white"/>
<path d="M33.7891 14.7461C34.5981 14.7461 35.2539 14.0903 35.2539 13.2812C35.2539 12.4722 34.5981 11.8164 33.7891 11.8164C32.9801 11.8164 32.3242 12.4722 32.3242 13.2812C32.3242 14.0903 32.9801 14.7461 33.7891 14.7461Z" fill="white"/>
<path d="M39.6484 14.7461C40.4574 14.7461 41.1133 14.0903 41.1133 13.2812C41.1133 12.4722 40.4574 11.8164 39.6484 11.8164C38.8394 11.8164 38.1836 12.4722 38.1836 13.2812C38.1836 14.0903 38.8394 14.7461 39.6484 14.7461Z" fill="white"/>
<path d="M32.931 46.9727C35.3426 46.9727 37.3047 45.0013 37.3047 42.5781V36.7188C37.3047 36.0886 36.9017 35.5291 36.3041 35.3294L27.5358 32.3997C27.1065 32.2563 26.6355 32.3193 26.2591 32.5702L22.5303 35.0561C18.5285 33.1572 13.7987 28.4693 11.9175 24.5387L14.4024 20.8112C14.6533 20.4349 14.7163 19.9636 14.5729 19.5345L11.6433 10.7662C11.4436 10.1686 10.8841 9.76562 10.2539 9.76562H4.39453C1.97139 9.76562 0 11.7276 0 14.1394C0 22.2328 3.68008 30.5394 10.0967 36.9291C16.5063 43.3119 24.8291 46.9727 32.931 46.9727ZM4.39453 12.6953H9.19893L11.5671 19.7828L9.03516 23.5807C8.76758 23.982 8.71475 24.4894 8.89394 24.9372C9.86807 27.3725 11.8175 30.1114 14.383 32.6496C16.9316 35.171 19.684 37.0991 22.1331 38.0787C22.5809 38.2578 23.0884 38.205 23.4896 37.9375L27.2876 35.4056L34.375 37.7737V42.5781C34.375 43.3995 33.7407 44.043 32.931 44.043C17.5098 44.043 2.92969 29.5104 2.92969 14.1394C2.92969 13.3296 3.57314 12.6953 4.39453 12.6953Z" fill="white"/>
<path d="M27.3691 29.283C27.9164 29.5098 28.5466 29.3844 28.9655 28.9655L34.3958 23.5352H39.6484C45.3563 23.5352 50 18.9353 50 13.2812C50 7.62725 45.3563 3.02734 39.6484 3.02734H27.9297C22.2757 3.02734 17.6758 7.62725 17.6758 13.2812C17.6758 18.438 21.5022 22.7179 26.4648 23.4309V27.9297C26.4648 28.5222 26.8218 29.0562 27.3691 29.283ZM20.6055 13.2812C20.6055 9.24268 23.8911 5.95703 27.9297 5.95703H39.6484C43.7408 5.95703 47.0703 9.24268 47.0703 13.2812C47.0703 17.3198 43.7408 20.6055 39.6484 20.6055H33.7891C33.4005 20.6055 33.0279 20.7598 32.7533 21.0345L29.3945 24.3933V22.0703C29.3945 21.2613 28.7387 20.6055 27.9297 20.6055C23.8911 20.6055 20.6055 17.3198 20.6055 13.2812Z" fill="white"/>
</svg>
