<svg width="50" height="50" viewBox="0 0 50 50" fill="none" xmlns="http://www.w3.org/2000/svg">
<g clip-path="url(#clip0)">
<path d="M29.8251 12.2703L33.2511 14.8048C33.6367 15.0901 33.4418 15.7213 32.9542 15.7244L31.8791 15.7309C31.878 15.7309 31.877 15.7309 31.876 15.7309C31.5994 15.7309 31.3736 15.5071 31.3719 15.2305C31.3669 14.4215 30.7075 13.7681 29.8981 13.7748C29.0892 13.7797 28.4374 14.4396 28.4423 15.2486C28.4519 16.8116 29.5103 18.1264 30.9445 18.5313V18.6022C30.9445 19.4112 31.6004 20.067 32.4093 20.067C33.2182 20.067 33.874 19.4112 33.874 18.6022V18.5283C34.4447 18.3701 34.9672 18.0658 35.3945 17.633C36.0393 16.98 36.391 16.1152 36.3847 15.1954V15.1862C36.3773 14.1118 35.8572 13.0887 34.9934 12.4497L31.5675 9.91518C31.1784 9.62729 31.3828 9.00698 31.8675 9.00698H32.9442C33.2223 9.00698 33.4484 9.23286 33.4484 9.51049C33.4484 10.3195 34.1043 10.9753 34.9132 10.9753C35.7221 10.9753 36.3779 10.3195 36.3779 9.51049C36.3779 7.93969 35.3168 6.61274 33.8739 6.2063V6.13579C33.8739 5.3268 33.2181 4.67094 32.4092 4.67094C31.6003 4.67094 30.9444 5.3268 30.9444 6.13579V6.20434C29.4981 6.60854 28.4337 7.93715 28.4337 9.51049C28.4338 10.594 28.9539 11.6256 29.8251 12.2703V12.2703Z" fill="white"/>
<path d="M32.4092 24.7378C39.2313 24.7378 44.7813 19.1892 44.7813 12.3688C44.7813 5.54854 39.2312 0 32.4092 0C25.5873 0 20.0372 5.54863 20.0372 12.3689C20.0372 19.1893 25.5873 24.7378 32.4092 24.7378ZM32.4092 2.92969C37.6159 2.92969 41.8517 7.16416 41.8517 12.3689C41.8517 17.5737 37.6159 21.8082 32.4092 21.8082C27.2027 21.8082 22.9668 17.5737 22.9668 12.3689C22.9668 7.16416 27.2027 2.92969 32.4092 2.92969Z" fill="white"/>
<path d="M48.9927 28.0456C47.4084 26.0059 44.5482 25.6222 42.4895 27.0505L36.9161 30.7792C36.1416 29.3371 34.6188 28.3541 32.8702 28.3541H28.8945C26.8877 26.4718 24.2085 25.4032 21.445 25.4032C19.3709 25.4032 17.3532 25.9891 15.6104 27.0977C14.0399 28.0966 12.7554 29.4765 11.8727 31.1056L11.1264 31.562L10.933 30.9965C10.6713 30.2311 9.83887 29.8226 9.07344 30.0841L0.99151 32.8458C0.226374 33.1072 -0.182611 33.9403 0.079108 34.7058L4.96905 49.0088C5.23087 49.7746 6.06358 50.1824 6.82862 49.9211L14.9106 47.1597C15.6323 46.913 16.1052 46.1252 15.8067 45.2522L28.6311 44.8553C32.1235 44.8506 35.4728 43.778 38.3177 41.7531L47.9888 34.874C50.206 33.2958 50.6637 30.1954 48.9927 28.0456V28.0456ZM7.26729 46.6752L3.3251 35.1444L8.63477 33.3301C9.20674 35.0032 11.9866 43.1342 12.577 44.861L7.26729 46.6752ZM46.2904 32.4868L36.6193 39.3659C34.2667 41.0404 31.4963 41.9255 28.6078 41.9255C28.5928 41.9255 28.5775 41.9257 28.5625 41.9262L14.8151 42.3516L12.0974 34.4021L13.7492 33.392C13.7496 33.3918 13.7499 33.3915 13.7503 33.3912C13.9935 33.2424 14.1836 33.0239 14.2996 32.7875C15.6478 30.0397 18.3857 28.3327 21.445 28.3327C23.6558 28.3327 25.7091 29.2177 27.2268 30.8248C27.5063 31.1209 27.9078 31.2835 28.2917 31.2835H32.8702C33.7855 31.2835 34.53 32.0276 34.53 32.9424C34.53 33.8475 33.7979 34.6012 32.8702 34.6012H24.6057C23.7967 34.6012 23.1409 35.2571 23.1409 36.0661C23.1409 36.8751 23.7968 37.5309 24.6057 37.5309H32.8702C34.0971 37.5309 35.2497 37.0532 36.1149 36.1868C36.7201 35.5817 37.1349 34.8374 37.3306 34.0264L44.1295 29.4779C44.1377 29.4724 44.1458 29.4669 44.1539 29.4612C44.9557 28.9011 46.0662 29.0536 46.6794 29.8429C47.326 30.675 47.1492 31.8756 46.2904 32.4868Z" fill="white"/>
</g>
<defs>
<clipPath id="clip0">
<rect width="50" height="50" fill="white"/>
</clipPath>
</defs>
</svg>
