<svg width="55" height="55" viewBox="0 0 55 55" fill="none" xmlns="http://www.w3.org/2000/svg">
<path d="M49.0918 4.41931H5.9082C2.65042 4.41931 0 7.06973 0 10.3275V27.515C0 30.7728 2.65042 33.4232 5.9082 33.4232H19.172L22.9539 48.1602C23.2482 49.3072 24.6415 49.7554 25.5494 48.9949L27.8422 47.0741L30.2846 50.0019C30.8564 50.6873 31.8759 50.7763 32.5576 50.204L38.1141 45.5416C38.7944 44.9709 38.8847 43.9571 38.3158 43.2751L35.8691 40.342L38.1671 38.4168C39.06 37.6687 38.8869 36.2462 37.8403 35.7342L33.1152 33.4232H49.0918C52.3496 33.4232 55 30.7728 55 27.515V10.3275C55 7.06973 52.3496 4.41931 49.0918 4.41931V4.41931ZM32.3644 41.1716L34.8119 44.1056L31.724 46.6966L29.2824 43.7698C28.7109 43.0845 27.6922 42.9956 27.0104 43.5667L25.4398 44.8826L22.0281 31.5883L34.196 37.5393L32.5668 38.9042C31.8858 39.4748 31.7952 40.4893 32.3644 41.1716V41.1716ZM51.7773 27.515C51.7773 28.9958 50.5726 30.2006 49.0918 30.2006C25.3674 30.2006 26.8466 30.1834 26.5981 30.2359L20.3076 27.1594C19.075 26.5569 17.6979 27.6784 18.0388 29.0074L18.345 30.2006H5.9082C4.42739 30.2006 3.22266 28.9958 3.22266 27.515V10.3275C3.22266 8.8467 4.42739 7.64197 5.9082 7.64197H49.0918C50.5726 7.64197 51.7773 8.8467 51.7773 10.3275V27.515Z" fill="white"/>
<path d="M12.998 10.8646H8.16406C7.27418 10.8646 6.55273 11.5861 6.55273 12.476V25.3666C6.55273 26.2565 7.27418 26.9779 8.16406 26.9779H12.998C15.6635 26.9779 17.832 24.8094 17.832 22.1439C17.832 20.907 17.3651 19.7771 16.5982 18.9213C17.3651 18.0654 17.832 16.9356 17.832 15.6986C17.832 13.0332 15.6635 10.8646 12.998 10.8646V10.8646ZM12.998 23.7552H9.77539V20.5326H12.998C13.8865 20.5326 14.6094 21.2554 14.6094 22.1439C14.6094 23.0324 13.8865 23.7552 12.998 23.7552ZM12.998 17.3099H9.77539V14.0873H12.998C13.8865 14.0873 14.6094 14.8101 14.6094 15.6986C14.6094 16.5871 13.8865 17.3099 12.998 17.3099Z" fill="white"/>
<path d="M30.7227 10.8646C29.8328 10.8646 29.1113 11.5861 29.1113 12.476V21.3383C29.1113 22.6709 28.0271 23.7552 26.6943 23.7552C25.3616 23.7552 24.2773 22.6709 24.2773 21.3383V12.476C24.2773 11.5861 23.5559 10.8646 22.666 10.8646C21.7761 10.8646 21.0547 11.5861 21.0547 12.476V21.3383C21.0547 24.4479 23.5846 26.9779 26.6943 26.9779C29.8041 26.9779 32.334 24.4479 32.334 21.3383V12.476C32.334 11.5861 31.6125 10.8646 30.7227 10.8646V10.8646Z" fill="white"/>
<path d="M47.6649 11.0942C46.9019 10.6363 45.9122 10.8837 45.4542 11.6469L42.002 17.4008L38.5496 11.6469C38.0918 10.8838 37.1018 10.6365 36.3389 11.0942C35.5758 11.5521 35.3284 12.5419 35.7862 13.305L40.3906 20.9789V25.3665C40.3906 26.2564 41.1121 26.9779 42.002 26.9779C42.8918 26.9779 43.6133 26.2564 43.6133 25.3665V20.9789L48.2176 13.305C48.6756 12.5419 48.4281 11.5521 47.6649 11.0942V11.0942Z" fill="white"/>
</svg>
