<svg width="45" height="45" viewBox="0 0 45 45" fill="none" xmlns="http://www.w3.org/2000/svg">
<path d="M8.78906 9.93164C8.78906 8.96072 9.57596 8.17383 10.5469 8.17383H34.4531C35.424 8.17383 36.2109 8.96072 36.2109 9.93164C36.2109 10.9026 35.424 11.6895 34.4531 11.6895H10.5469C9.57596 11.6895 8.78906 10.9026 8.78906 9.93164ZM36.2109 16.9629C36.2109 15.992 35.424 15.2051 34.4531 15.2051H10.5469C9.57596 15.2051 8.78906 15.992 8.78906 16.9629C8.78906 17.9338 9.57596 18.7207 10.5469 18.7207H34.4531C35.424 18.7207 36.2109 17.9338 36.2109 16.9629ZM10.5469 22.2363C9.57596 22.2363 8.78906 23.0232 8.78906 23.9941C8.78906 24.9651 9.57596 25.752 10.5469 25.752H18.6328C19.6037 25.752 20.3906 24.9651 20.3906 23.9941C20.3906 23.0232 19.6037 22.2363 18.6328 22.2363H10.5469ZM43.4568 35.9991C45.5116 38.0539 45.5116 41.3992 43.4554 43.4554C42.4275 44.4833 41.0769 44.9976 39.7266 44.9976C38.3763 44.9976 37.0256 44.4833 35.9977 43.4554L26.3854 33.8252C26.1712 33.6106 26.0163 33.3445 25.9356 33.0524L23.9701 25.9576C23.7991 25.3396 23.9777 24.6777 24.4367 24.23C24.8954 23.7827 25.5614 23.6199 26.1749 23.8063L33.0943 25.9082C33.3713 25.9923 33.6233 26.1433 33.8276 26.3483L43.4568 35.9991ZM29.1999 31.6684L35.6613 38.1418L38.1476 35.6554L31.6502 29.1436L28.2112 28.0989L29.1999 31.6684ZM40.9694 38.4837L40.6309 38.1442L38.1449 40.6302L38.4848 40.9708C39.169 41.655 40.2841 41.655 40.9694 40.9694C41.655 40.2841 41.655 39.169 40.9694 38.4837ZM37.9688 0H7.03125C3.15411 0 0 3.15411 0 7.03125V37.9688C0 41.8459 3.15411 45 7.03125 45H28.5645C29.5354 45 30.3223 44.2131 30.3223 43.2422C30.3223 42.2713 29.5354 41.4844 28.5645 41.4844H7.03125C5.09285 41.4844 3.51562 39.9072 3.51562 37.9688V7.03125C3.51562 5.09285 5.09285 3.51562 7.03125 3.51562H37.9688C39.9072 3.51562 41.4844 5.09285 41.4844 7.03125V28.6523C41.4844 29.6233 42.2713 30.4102 43.2422 30.4102C44.2131 30.4102 45 29.6233 45 28.6523V7.03125C45 3.15411 41.8459 0 37.9688 0Z" fill="white"/>
</svg>
