<svg width="50" height="50" viewBox="0 0 50 50" fill="none" xmlns="http://www.w3.org/2000/svg">
<path d="M40.4609 45.1087V4.89131C40.4609 2.19453 38.2669 0 35.5696 0H14.4283C11.7315 0 9.53701 2.19453 9.53701 4.89131V45.1087C9.53701 47.806 11.7315 50 14.4283 50H35.624C36.9311 50 38.2022 49.4625 39.1115 48.5256C40.0201 47.5886 40.4989 46.3576 40.4609 45.1087ZM36.7707 46.2544C36.468 46.5675 36.0609 46.7392 35.6239 46.7392H14.4283C13.5294 46.7392 12.7979 46.0076 12.7979 45.1087V4.89131C12.7979 3.99238 13.5294 3.26084 14.4283 3.26084H35.5696C36.4686 3.26084 37.2001 3.99238 37.2001 4.89131L37.2007 45.1576C37.2131 45.5663 37.0604 45.956 36.7707 46.2544Z" fill="white"/>
<path d="M38.8848 6.35866H11.1674V9.6195H38.8848V6.35866Z" fill="white"/>
<path d="M38.8848 37.8261H11.1674V41.0869H38.8848V37.8261Z" fill="white"/>
<path d="M26.3849 42.2282H23.6675C22.7669 42.2282 22.037 42.9581 22.037 43.8587C22.037 44.7593 22.7669 45.4892 23.6675 45.4892H26.3849C27.2854 45.4892 28.0153 44.7593 28.0153 43.8587C28.0153 42.9581 27.2854 42.2282 26.3849 42.2282Z" fill="white"/>
</svg>
